<?xml version="1.0" encoding="iso-8859-1"?>
<!-- Generator: Adobe Illustrator 19.0.0, SVG Export Plug-In . SVG Version: 6.00 Build 0)  -->
<svg version="1.1" id="Capa_1" xmlns="http://www.w3.org/2000/svg" xmlns:xlink="http://www.w3.org/1999/xlink" x="0px" y="0px"
	 viewBox="0 0 58 58" style="enable-background:new 0 0 58 58;" xml:space="preserve">
<rect y="16" style="fill:#D75A4A;" width="19" height="13"/>
<rect x="19" y="16" style="fill:#ED7161;" width="19" height="13"/>
<rect x="38" y="16" style="fill:#D75A4A;" width="20" height="13"/>
<rect x="10" y="29" style="fill:#D75A4A;" width="19" height="13"/>
<rect y="29" style="fill:#ED7161;" width="10" height="13"/>
<rect x="48" y="29" style="fill:#D75A4A;" width="10" height="13"/>
<rect x="29" y="29" style="fill:#ED7161;" width="19" height="13"/>
<rect x="10" y="3" style="fill:#D75A4A;" width="19" height="13"/>
<path style="fill:#ED7161;" d="M10,16H0V4.95C0,3.873,0.873,3,1.95,3H10V16z"/>
<path style="fill:#D75A4A;" d="M58,16H48V3h8.05C57.127,3,58,3.873,58,4.95V16z"/>
<rect x="29" y="3" style="fill:#ED7161;" width="19" height="13"/>
<path style="fill:#D75A4A;" d="M19,55H1.95C0.873,55,0,54.127,0,53.05V42h19V55z"/>
<rect x="19" y="42" style="fill:#ED7161;" width="19" height="13"/>
<path style="fill:#D75A4A;" d="M56.05,55H38V42h20v11.05C58,54.127,57.127,55,56.05,55z"/>
<rect y="15" style="fill:#D1D4D1;" width="58" height="2"/>
<rect y="28" style="fill:#D1D4D1;" width="58" height="2"/>
<rect y="41" style="fill:#D1D4D1;" width="58" height="2"/>
<rect x="9" y="3" style="fill:#D1D4D1;" width="2" height="12"/>
<rect x="28" y="3" style="fill:#D1D4D1;" width="2" height="12"/>
<rect x="47" y="3" style="fill:#D1D4D1;" width="2" height="12"/>
<rect x="37" y="17" style="fill:#D1D4D1;" width="2" height="12"/>
<rect x="18" y="17" style="fill:#D1D4D1;" width="2" height="12"/>
<rect x="9" y="30" style="fill:#D1D4D1;" width="2" height="12"/>
<rect x="28" y="30" style="fill:#D1D4D1;" width="2" height="12"/>
<rect x="47" y="30" style="fill:#D1D4D1;" width="2" height="12"/>
<rect x="37" y="43" style="fill:#D1D4D1;" width="2" height="12"/>
<rect x="18" y="43" style="fill:#D1D4D1;" width="2" height="12"/>
<g>
</g>
<g>
</g>
<g>
</g>
<g>
</g>
<g>
</g>
<g>
</g>
<g>
</g>
<g>
</g>
<g>
</g>
<g>
</g>
<g>
</g>
<g>
</g>
<g>
</g>
<g>
</g>
<g>
</g>
</svg>
